<?xml version="1.0" encoding="UTF-8"?><svg id="Layer_2" xmlns="http://www.w3.org/2000/svg" viewBox="0 0 448 343"><defs><style>.cls-1{fill:#eb616b;}.cls-1,.cls-2,.cls-3,.cls-4{stroke-width:0px;}.cls-5{fill:none;stroke:#1d3557;stroke-miterlimit:10;stroke-width:5px;}.cls-2{fill:#1d3557;}.cls-3{fill:#fff;}.cls-4{fill:#d13440;}</style></defs><g id="Layer_1-2"><path class="cls-3" d="m428,55h-136.41c-2.76-13.53-9.54-25.89-19.74-35.71C258.22,6.16,240.28-.67,221.33.05c-31.94,1.21-58.54,24.52-64.87,54.95H20c-11.03,0-20,8.97-20,20v248c0,11.03,8.97,20,20,20h408c11.03,0,20-8.97,20-20V75c0-11.03-8.97-20-20-20Z"/><path class="cls-5" d="m170.03,70H20c-2.76,0-5,2.24-5,5v248c0,2.76,2.24,5,5,5h408c2.76,0,5-2.24,5-5V75c0-2.76-2.24-5-5-5h-114.67"/><path class="cls-2" d="m313.61,64.36c-3.11,0-5.64,2.53-5.64,5.64s2.53,5.64,5.64,5.64,5.64-2.53,5.64-5.64-2.53-5.64-5.64-5.64Z"/><path class="cls-5" d="m218.64,122.74c-27.99-2.76-49.7-26.88-48.6-55.84,1.06-27.99,23.87-50.79,51.86-51.86,28.96-1.1,53.09,20.62,55.84,48.61"/><path class="cls-2" d="m218.66,117.08c3.11.16,5.5,2.81,5.34,5.92s-2.81,5.5-5.92,5.34c-3.11-.16-5.5-2.81-5.34-5.92.16-3.11,2.81-5.5,5.92-5.34Z"/><path class="cls-2" d="m272.08,63.66c.16,3.11,2.81,5.5,5.92,5.34,3.11-.16,5.5-2.81,5.34-5.92-.16-3.11-2.81-5.5-5.92-5.34-3.11.16-5.5,2.81-5.34,5.92Z"/><path class="cls-4" d="m205.98,79.16c0-.37,0-.75,0-1.12,0-14.15,0-28.3,0-42.44,0-3.23,1.56-4.8,4.78-4.8,11.72,0,23.45,0,35.17,0,2.9,0,4.51,1.61,4.52,4.49,0,9.48,0,18.95,0,28.43,0,2.56-1.93,4.48-4.41,4.45-9.61-.09-19.22-.01-28.82-.07-1.26,0-2.09.33-2.89,1.34-2.49,3.14-5.09,6.2-7.65,9.28-.15.19-.24.49-.69.44Zm22.85-20.94h0c4.05-.01,8.1-.01,12.14-.01.35,0,.71.04,1.05-.03.57-.11.96-.46.97-1.08.01-.62-.36-.99-.93-1.11-.34-.07-.7-.04-1.05-.04-7.13,0-14.26-.01-21.38-.02-1.19,0-2.38,0-3.56.02-.73,0-1.23.41-1.24,1.1-.01.7.51,1.09,1.21,1.15.31.03.62,0,.92,0,3.96,0,7.92,0,11.88,0Zm.13-9.99c-4.1,0-8.2,0-12.3,0-.8,0-1.73-.1-1.77,1.05-.04,1.15.86,1.13,1.68,1.13,8.24,0,16.49,0,24.73,0,.79,0,1.63-.04,1.65-1.06.03-1.13-.87-1.13-1.7-1.13-4.1,0-8.2,0-12.3,0Zm-3.69-7.87c-2.73,0-5.46,0-8.19,0-.85,0-1.74.08-1.76,1.12-.01,1.05.88,1.14,1.73,1.14,5.46,0,10.92,0,16.38.01.86,0,1.74-.11,1.75-1.14.01-1.04-.86-1.15-1.73-1.14-2.73.02-5.46,0-8.19,0Z"/><path class="cls-2" d="m228.34,83.89c2.16,0,4.32-.02,6.48,0,1.71.02,2.25.56,2.09,2.26-.19,1.93-.64,3.81-1.41,5.61-1.44,3.36-3.05,6.63-4.74,9.86-.52,1-1.08,1.53-2.4,1.77-2.69.49-5.37.77-8.08.91-2.9.15-5.81.17-8.69-.41-1.06-.21-1.44-.68-1.42-1.78.06-4.14.03-8.28.04-12.43,0-.44-.02-.86.18-1.29,2.3-5.14,4.63-10.26,7.59-15.07.23-.37.48-.74.77-1.07,1.25-1.44,3.2-1.09,3.91.68.55,1.37.15,2.71-.13,4.03-.4,1.94-.89,3.86-1.41,5.76-.23.86-.2,1.24.87,1.19,2.11-.09,4.23-.03,6.35-.03Z"/><path class="cls-1" d="m259.42,83.8c-1.96-2.37-3.71-4.45-5.41-6.57-.57-.71-1.16-1.01-2.1-1-6.25.05-12.51.03-18.76.02-2.74,0-3.67-.91-3.67-3.6q0-2.76,2.7-2.76c4.62,0,9.25,0,13.87,0,3.68,0,6.14-2.45,6.16-6.1.02-3.88.04-7.75-.01-11.63-.01-.95.26-1.2,1.16-1.12,1.01.08,2.02,0,3.04.02,2.09.02,3.08.97,3.09,3.07.02,5.9,0,11.8,0,17.7,0,3.61,0,7.22,0,10.83,0,.25-.03.5-.08,1.13Z"/><path class="cls-2" d="m198.41,95.97c0-2.33.03-4.67-.02-7-.02-.81.13-1.17,1.06-1.13,1.89.08,3.79.05,5.68.01.66-.01.9.15.9.87-.03,4.93-.03,9.86,0,14.79,0,.74-.26.87-.91.85-1.89-.04-3.79-.05-5.68,0-.8.02-1.06-.18-1.04-1.01.06-2.46.02-4.93.02-7.4Z"/></g></svg>