<?xml version="1.0" encoding="UTF-8"?><svg id="Layer_2" xmlns="http://www.w3.org/2000/svg" viewBox="0 0 42.48 42.48"><defs><style>.cls-1{fill:#70be46;}.cls-1,.cls-2,.cls-3,.cls-4,.cls-5,.cls-6{stroke-width:0px;}.cls-2{opacity:.2;}.cls-3,.cls-6{fill:#fff;}.cls-4{fill:#513636;}.cls-5{fill:#ff4a4a;}.cls-6{opacity:.3;}</style></defs><g id="Layer_1-2"><circle class="cls-1" cx="21.24" cy="21.24" r="21.24"/><path class="cls-4" d="m29.72,26.12c0,2.25-.91,4.28-2.38,5.75-.57.57-1.22,1.05-1.93,1.43-.09.05-.18.1-.27.14-.89.44-1.88.71-2.92.79-.21.02-.42.03-.63.03h-.68c-.21,0-.42,0-.63-.03-1.04-.08-2.03-.35-2.92-.79-.09-.04-.18-.09-.27-.14-2.57-1.37-4.31-4.07-4.31-7.18h16.96Z"/><path class="cls-3" d="m28.65,26.99v.78c0,.55-.44.99-.99.99h-12.85c-.55,0-.99-.44-.99-.99v-.78h14.82Z"/><path class="cls-5" d="m24.84,32.62s-.05.03-.08.04c-.82.4-1.7.64-2.61.71-.09,0-.18.01-.26.02-.1,0-.2,0-.3,0h-.68c-.1,0-.2,0-.3,0-.1,0-.2-.01-.29-.02-.95-.07-1.86-.31-2.7-.71,0-.01.02-.03.03-.03.48-.53,1.17-.87,1.95-.87.62,0,1.2.22,1.65.59.45-.37,1.03-.59,1.65-.59.78,0,1.47.34,1.95.87Z"/><path class="cls-2" d="m42.48,21.24c0,11.73-9.51,21.24-21.24,21.24-9.58,0-17.68-6.34-20.33-15.06,3.49,6.96,10.69,11.73,19,11.73,11.73,0,21.24-9.51,21.24-21.24,0-2.15-.32-4.23-.91-6.19,1.43,2.86,2.24,6.09,2.24,9.51Z"/><ellipse class="cls-6" cx="12.36" cy="5.74" rx="4.48" ry="2.19" transform="translate(-1.21 6.95) rotate(-30)"/><path class="cls-4" d="m32.53,19.52c-.66-.33-1.24-.49-1.79-.61-.55-.1-1.08-.14-1.64-.14-.56,0-1.08.04-1.64.15-.55.11-1.13.28-1.79.61.08-.76.6-1.41,1.23-1.85.65-.43,1.44-.64,2.2-.64.76,0,1.55.21,2.2.64.64.43,1.15,1.09,1.23,1.85Z"/><path class="cls-4" d="m16.81,19.52c-.66-.33-1.24-.49-1.79-.61-.55-.1-1.08-.14-1.64-.14-.56,0-1.08.04-1.64.15-.55.11-1.13.28-1.79.61.08-.76.59-1.41,1.23-1.85.65-.43,1.44-.64,2.2-.64.76,0,1.55.21,2.2.64.64.43,1.15,1.09,1.23,1.85Z"/></g></svg>