<svg xmlns="http://www.w3.org/2000/svg" width="18.4" height="23" viewBox="0 0 18.4 23">
  <g id="task" transform="translate(-4 -2)">
    <path id="Path_29246" data-name="Path 29246" d="M8.6,25h9.2a4.614,4.614,0,0,0,4.6-4.6V7.75a4.475,4.475,0,0,0-3.8-4.485A2.466,2.466,0,0,0,16.42,2H9.98A2.466,2.466,0,0,0,7.795,3.265,4.475,4.475,0,0,0,4,7.75V20.4A4.614,4.614,0,0,0,8.6,25ZM9.75,4.415A.4.4,0,0,1,9.98,4.3h6.555l.115.115v.8a.247.247,0,0,1-.23.23H9.98a.247.247,0,0,1-.23-.23ZM6.3,7.75A2.415,2.415,0,0,1,7.45,5.68v.115c0,.115.115.23.115.345a.113.113,0,0,0,.115.115.4.4,0,0,0,.115.23L7.91,6.6c0,.115.115.115.23.23l.115.115.23.23L8.6,7.29c.115,0,.115.115.23.115a.113.113,0,0,1,.115.115c.115,0,.23.115.345.115H9.4a1.037,1.037,0,0,0,.575.115h7.13a.422.422,0,0,0,.345-.115.113.113,0,0,0,.115-.115c.115,0,.115-.115.23-.115l.115-.115c.115,0,.115-.115.23-.23l.115-.115.23-.23.115-.115c0-.115.115-.115.115-.23a.113.113,0,0,1,.115-.115c0-.115.115-.23.115-.345V5.795a2.279,2.279,0,0,1,1.15,2.07v12.65a2.307,2.307,0,0,1-2.3,2.3H8.6a2.307,2.307,0,0,1-2.3-2.3Z" transform="translate(0 0)" fill="#fff"/>
    <path id="Path_29247" data-name="Path 29247" d="M9.15,16.9h2.3a1.15,1.15,0,0,0,0-2.3H9.15a1.15,1.15,0,1,0,0,2.3Zm0-4.6h6.9a1.086,1.086,0,0,0,1.15-1.15A1.086,1.086,0,0,0,16.05,10H9.15A1.086,1.086,0,0,0,8,11.15,1.086,1.086,0,0,0,9.15,12.3Z" transform="translate(0.6 1.2)" fill="#fff"/>
  </g>
</svg>
