<?xml version="1.0" encoding="UTF-8"?><svg id="Layer_2" xmlns="http://www.w3.org/2000/svg" viewBox="0 0 345.08 116.79"><defs><style>.cls-1{fill:#eb616b;}.cls-1,.cls-2,.cls-3,.cls-4{stroke-width:0px;}.cls-2{fill:#1c3253;}.cls-3{fill:#1d3557;}.cls-4{fill:#d13440;}</style></defs><g id="Layer_1-2"><polygon class="cls-2" points="55.1 86.88 55.19 86.93 55.18 86.83 55.1 86.88"/><polygon class="cls-2" points="61.46 87.68 59.11 89.1 59.97 89.57 62.47 88.07 61.46 87.51 61.46 87.68"/><polygon class="cls-3" points="95.46 20.54 58.25 0 21.86 21.95 22.13 35.76 22.21 40.35 22.5 55.14 22.59 59.73 22.68 64.45 38.13 72.98 42.15 75.19 55.1 82.34 54.81 67.55 41.86 60.4 37.85 58.19 35.34 56.8 35.25 52.09 35.16 47.5 34.88 32.71 34.81 29.1 37.16 27.68 58.54 14.79 82.79 28.18 82.83 29.85 95.78 37 95.46 20.54"/><path class="cls-1" d="m74.41,94.66l-.26-13.64-.09-4.59-.28-14.79-.09-4.59-.06-2.94-12.67,7.64-2.26,1.37.04,2.06.09,4.59.28,14.79v4.54s0,0,0,0l-1.43.86-12.67,7.64-3.93,2.37-3.35,2.02-24.26-13.39-.53-27.7,5.62-3.39-.28-14.79L0,53.75l.81,42.49,37.21,20.54,16.01-9.66,3.93-2.37,12.67-7.64,3.78-2.28v-.17Zm-13.15-5.86l.2-1.29,1.01.56-1.21.73Z"/><polygon class="cls-4" points="115.34 52.34 99.88 43.81 95.87 41.59 82.92 34.44 78.9 32.22 78.13 31.8 62.11 41.46 58.18 43.83 45.52 51.47 41.74 53.75 41.74 53.92 54.69 61.07 54.69 60.9 58.47 58.62 71.14 50.98 75.07 48.61 78.41 46.59 79.18 47.01 83.2 49.23 96.15 56.38 100.17 58.6 102.67 59.98 103.2 87.68 79.47 101.99 74.65 99.33 61.98 106.97 79.76 116.79 116.15 94.83 115.34 52.34"/><path class="cls-3" d="m170.38,81.08c-.18.61-.42,1.11-.7,1.49s-.76.67-1.4.87c-.65.2-1.53.32-2.65.38-1.12.05-2.58.08-4.38.08-1.44,0-2.68,0-3.7-.03-1.03-.02-1.9-.06-2.62-.14-.72-.07-1.31-.18-1.76-.32-.45-.14-.83-.33-1.14-.54s-.54-.48-.7-.78c-.16-.31-.32-.69-.46-1.16l-20.82-62.02c-.43-1.3-.7-2.33-.78-3.08-.09-.76.09-1.33.54-1.7.45-.38,1.22-.61,2.3-.7,1.08-.09,2.6-.13,4.54-.13,1.66,0,2.95.04,3.89.11.94.07,1.66.2,2.16.38.5.18.86.45,1.05.81.2.36.39.81.57,1.35l17.03,53.96h.05l16.71-53.69c.14-.61.32-1.11.54-1.49.22-.38.58-.68,1.11-.89.52-.22,1.27-.36,2.24-.43.97-.07,2.31-.11,4-.11s2.95.05,3.87.16c.92.11,1.55.37,1.89.78.34.42.45,1,.32,1.76-.13.76-.41,1.77-.84,3.03l-20.87,62.08Z"/><path class="cls-3" d="m285.47,81.62c0,.36-.1.69-.3.97s-.56.52-1.08.7c-.52.18-1.22.33-2.08.43-.86.11-1.96.16-3.3.16s-2.38-.05-3.24-.16c-.87-.11-1.55-.25-2.05-.43-.5-.18-.87-.41-1.08-.7-.22-.29-.32-.61-.32-.97V24.68h-.11l-20.28,56.88c-.15.47-.38.86-.7,1.16-.32.31-.77.55-1.32.73-.56.18-1.27.3-2.14.35-.87.05-1.91.08-3.14.08s-2.27-.05-3.14-.13c-.87-.09-1.58-.23-2.14-.43-.56-.2-1-.44-1.32-.73s-.54-.63-.65-1.03l-19.57-56.88h-.11v56.94c0,.36-.1.69-.3.97s-.57.52-1.11.7c-.54.18-1.24.33-2.08.43-.85.11-1.94.16-3.27.16s-2.38-.05-3.24-.16c-.87-.11-1.56-.25-2.08-.43-.52-.18-.88-.41-1.08-.7s-.3-.61-.3-.97V19.27c0-1.84.48-3.24,1.46-4.22.97-.97,2.27-1.46,3.89-1.46h9.3c1.66,0,3.08.14,4.27.41,1.19.27,2.22.72,3.08,1.35.86.63,1.59,1.46,2.16,2.49.58,1.03,1.08,2.3,1.52,3.81l15.14,41.69h.22l15.68-41.58c.47-1.51.98-2.79,1.54-3.84.56-1.04,1.21-1.89,1.95-2.54s1.61-1.11,2.62-1.38c1.01-.27,2.18-.41,3.52-.41h9.57c.97,0,1.81.13,2.51.38.7.25,1.28.62,1.73,1.11.45.49.79,1.08,1.03,1.78.23.7.35,1.51.35,2.41v62.35Z"/><path class="cls-3" d="m345.08,62.59c0,3.68-.68,6.9-2.05,9.68-1.37,2.78-3.23,5.09-5.57,6.95-2.34,1.86-5.08,3.25-8.22,4.19-3.14.94-6.49,1.41-10.06,1.41-2.42,0-4.66-.2-6.73-.59-2.07-.4-3.9-.87-5.49-1.43-1.59-.56-2.91-1.14-3.97-1.76-1.07-.61-1.83-1.15-2.3-1.62-.47-.47-.8-1.14-1-2.03-.2-.88-.3-2.15-.3-3.81,0-1.12.03-2.05.11-2.81.07-.76.19-1.37.35-1.84.16-.47.38-.8.65-1,.27-.2.58-.3.95-.3.5,0,1.22.3,2.14.89.92.59,2.1,1.25,3.54,1.97,1.44.72,3.16,1.38,5.16,1.97,2,.59,4.32.89,6.95.89,1.73,0,3.28-.21,4.65-.62,1.37-.41,2.53-1,3.49-1.76.95-.76,1.69-1.69,2.19-2.81.5-1.12.76-2.36.76-3.73,0-1.59-.43-2.95-1.3-4.08-.87-1.14-1.99-2.14-3.38-3.03-1.39-.88-2.97-1.71-4.73-2.49-1.77-.78-3.59-1.6-5.46-2.46-1.87-.86-3.7-1.85-5.46-2.95-1.77-1.1-3.34-2.42-4.73-3.95s-2.51-3.34-3.38-5.43c-.87-2.09-1.3-4.6-1.3-7.52,0-3.35.62-6.3,1.87-8.84,1.24-2.54,2.92-4.65,5.03-6.33,2.11-1.68,4.6-2.93,7.46-3.76,2.87-.83,5.9-1.24,9.11-1.24,1.66,0,3.32.13,4.97.38,1.66.25,3.21.6,4.65,1.03,1.44.43,2.72.92,3.84,1.46,1.12.54,1.86.99,2.22,1.35.36.36.6.67.73.92.13.25.23.59.33,1,.09.41.15.94.19,1.57.03.63.05,1.42.05,2.35,0,1.05-.03,1.93-.08,2.65-.05.72-.14,1.32-.27,1.78-.13.47-.31.81-.54,1.03-.23.22-.55.33-.95.33s-1.03-.25-1.89-.76c-.86-.5-1.93-1.05-3.19-1.65-1.26-.59-2.72-1.13-4.38-1.62-1.66-.49-3.48-.73-5.46-.73-1.55,0-2.9.19-4.05.57-1.15.38-2.12.9-2.89,1.57-.78.67-1.35,1.47-1.73,2.41-.38.94-.57,1.93-.57,2.97,0,1.55.42,2.89,1.27,4.03.85,1.14,1.98,2.14,3.4,3.03s3.04,1.71,4.84,2.49c1.8.78,3.64,1.59,5.52,2.46,1.87.87,3.71,1.85,5.52,2.95,1.8,1.1,3.4,2.41,4.81,3.95,1.41,1.53,2.54,3.33,3.41,5.41.87,2.07,1.3,4.52,1.3,7.33Z"/><path class="cls-3" d="m136.6,103.89c-.03.09-.06.16-.1.22s-.11.1-.2.13c-.09.03-.22.05-.38.06s-.37.01-.63.01c-.21,0-.39,0-.54,0-.15,0-.28,0-.38-.02-.11-.01-.19-.03-.26-.05-.06-.02-.12-.05-.16-.08s-.08-.07-.1-.11c-.02-.04-.05-.1-.07-.17l-3.02-9c-.06-.19-.1-.34-.11-.45-.01-.11.01-.19.08-.25.07-.06.18-.09.33-.1s.38-.02.66-.02c.24,0,.43,0,.57.02.14.01.24.03.31.06.07.03.12.07.15.12s.06.12.08.2l2.47,7.83h0l2.43-7.79c.02-.09.05-.16.08-.22.03-.06.09-.1.16-.13.07-.03.18-.05.32-.06.14-.01.34-.02.58-.02s.43,0,.56.02.22.05.27.11.07.15.05.26c-.02.11-.06.26-.12.44l-3.03,9.01Z"/><path class="cls-3" d="m146.42,103.44c0,.15,0,.28-.02.38-.01.1-.03.18-.06.25-.03.06-.06.11-.1.14-.04.03-.08.04-.13.04h-5.1c-.17,0-.32-.05-.44-.15s-.18-.27-.18-.5v-8.85c0-.23.06-.4.18-.5s.26-.15.44-.15h5.07s.09.01.13.04c.04.03.07.07.09.14.03.07.05.15.06.25.01.1.02.23.02.39,0,.15,0,.27-.02.37-.01.1-.03.18-.06.25s-.06.11-.09.14c-.04.03-.08.04-.13.04h-3.63v2.48h3.07s.09.02.13.04c.04.03.07.07.1.13s.05.14.06.24c.01.1.02.23.02.37s0,.28-.02.38c-.01.1-.03.18-.06.24s-.06.1-.1.13c-.04.03-.08.04-.13.04h-3.07v2.86h3.66s.09.02.13.04c.04.03.07.07.1.14s.05.15.06.25c.01.1.02.23.02.38Z"/><path class="cls-3" d="m155.98,103.53c0,.12-.02.23-.06.32-.04.09-.1.17-.17.24-.07.06-.15.11-.25.14-.1.03-.2.04-.29.04h-.88c-.18,0-.34-.02-.48-.06-.13-.04-.26-.1-.37-.2s-.22-.23-.33-.39c-.1-.17-.22-.38-.35-.64l-2.53-4.75c-.15-.28-.3-.59-.45-.91-.15-.33-.29-.64-.41-.95h-.02c.02.38.04.75.05,1.13.01.37.02.76.02,1.16v5.31c0,.05-.01.1-.04.14-.03.04-.08.08-.15.11s-.17.05-.29.07c-.12.02-.27.02-.46.02s-.34,0-.46-.02c-.12-.02-.21-.04-.28-.07s-.11-.06-.14-.11c-.03-.04-.04-.09-.04-.14v-9.13c0-.25.07-.43.22-.55s.32-.18.53-.18h1.11c.2,0,.37.02.5.05s.26.09.37.17c.11.08.21.19.3.33.09.14.19.31.29.51l1.98,3.71c.11.23.23.45.34.66.11.22.22.43.33.65s.21.43.31.64.2.42.29.63h0c-.02-.37-.03-.75-.04-1.15,0-.4-.01-.78-.01-1.14v-4.76c0-.05.01-.1.05-.14.03-.04.08-.08.16-.11.07-.03.17-.05.29-.07.12-.01.27-.02.46-.02.18,0,.33,0,.45.02.12.01.21.04.28.07.06.03.11.07.14.11.03.04.04.09.04.14v9.13Z"/><path class="cls-3" d="m165.98,99.02c0,.93-.12,1.73-.36,2.39-.24.66-.59,1.2-1.05,1.62-.45.42-1.01.73-1.66.92-.65.2-1.43.29-2.33.29h-2.42c-.17,0-.32-.05-.44-.15s-.18-.27-.18-.5v-8.85c0-.23.06-.4.18-.5s.26-.15.44-.15h2.61c.9,0,1.67.11,2.3.32s1.16.53,1.59.94c.43.42.76.93.98,1.54.22.61.34,1.32.34,2.13Zm-2.13.07c0-.48-.06-.93-.17-1.34-.11-.41-.29-.77-.54-1.07s-.57-.54-.96-.71c-.39-.17-.9-.26-1.53-.26h-1.04v6.91h1.08c.56,0,1.04-.07,1.43-.22.39-.15.71-.37.97-.66.26-.3.45-.66.58-1.1.13-.44.19-.95.19-1.54Z"/><path class="cls-3" d="m176.17,99.06c0,.84-.1,1.6-.31,2.26-.21.66-.52,1.23-.93,1.69-.41.46-.92.82-1.54,1.06-.61.24-1.32.36-2.12.36s-1.48-.1-2.07-.31c-.59-.21-1.08-.52-1.47-.95-.39-.42-.69-.96-.88-1.62-.2-.65-.29-1.43-.29-2.32,0-.82.1-1.56.31-2.22.21-.66.52-1.21.93-1.68.41-.46.92-.81,1.54-1.06.61-.25,1.32-.37,2.12-.37s1.45.1,2.04.31,1.08.52,1.48.94c.4.42.69.96.89,1.61.2.65.3,1.41.3,2.29Zm-2.17.11c0-.53-.04-1.02-.13-1.46-.08-.44-.23-.81-.43-1.12-.2-.31-.47-.55-.8-.72-.34-.17-.75-.26-1.26-.26s-.93.1-1.27.29c-.34.19-.61.45-.82.76-.21.32-.36.69-.44,1.12s-.13.88-.13,1.35c0,.55.04,1.05.13,1.5s.22.82.42,1.13c.2.31.47.55.8.72.34.17.76.25,1.27.25s.93-.1,1.27-.28.61-.44.82-.77c.21-.33.36-.7.44-1.13.09-.43.13-.89.13-1.38Z"/><path class="cls-3" d="m184.8,103.98c0,.06-.01.11-.03.15-.02.04-.07.07-.15.1-.08.03-.19.05-.34.06-.15.01-.36.02-.62.02-.22,0-.4,0-.53-.02-.13-.01-.23-.03-.31-.06-.08-.03-.13-.07-.16-.11-.03-.05-.06-.1-.08-.16l-.91-2.27c-.11-.26-.22-.48-.32-.68-.1-.2-.22-.37-.35-.5-.13-.13-.27-.23-.44-.3s-.36-.1-.58-.1h-.64v3.87c0,.05-.02.1-.05.14s-.09.08-.17.1c-.08.03-.18.05-.31.06-.13.02-.3.02-.5.02s-.37,0-.5-.02c-.13-.02-.24-.04-.32-.06s-.13-.06-.17-.1c-.03-.04-.05-.09-.05-.14v-9.22c0-.23.06-.4.18-.5s.26-.15.44-.15h2.63c.27,0,.49,0,.66.02.17.01.33.02.47.04.41.06.78.16,1.1.3.33.14.6.33.83.55.23.23.4.5.52.81.12.31.18.67.18,1.07,0,.34-.04.65-.13.93s-.21.53-.38.75c-.17.22-.37.41-.62.57s-.53.29-.84.39c.15.07.29.16.43.27.13.11.26.23.38.38.12.15.23.32.33.51.1.19.21.41.31.65l.85,2c.08.2.13.34.16.44.03.09.04.16.04.22Zm-2.66-6.89c0-.34-.08-.62-.23-.85-.15-.23-.4-.39-.74-.49-.11-.03-.22-.05-.36-.06-.13-.02-.32-.02-.55-.02h-.93v2.88h1.05c.29,0,.55-.04.77-.11.22-.07.4-.17.55-.3.15-.13.26-.28.33-.46.07-.18.11-.38.11-.6Z"/><path class="cls-3" d="m200.5,103.97c0,.05-.01.1-.04.14-.03.04-.08.08-.16.1s-.18.05-.3.06c-.12.02-.28.02-.48.02s-.34,0-.47-.02c-.13-.02-.23-.04-.3-.06-.07-.03-.13-.06-.16-.1-.03-.04-.05-.09-.05-.14v-8.27h-.02l-2.94,8.26c-.02.07-.06.12-.1.17-.05.05-.11.08-.19.11-.08.03-.18.04-.31.05-.13,0-.28.01-.46.01s-.33,0-.45-.02c-.13-.01-.23-.03-.31-.06-.08-.03-.15-.06-.19-.11-.05-.04-.08-.09-.09-.15l-2.84-8.26h-.02v8.27c0,.05-.01.1-.04.14-.03.04-.08.08-.16.1-.08.03-.18.05-.3.06-.12.02-.28.02-.47.02s-.34,0-.47-.02c-.13-.02-.23-.04-.3-.06s-.13-.06-.16-.1c-.03-.04-.04-.09-.04-.14v-9.05c0-.27.07-.47.21-.61.14-.14.33-.21.56-.21h1.35c.24,0,.45.02.62.06.17.04.32.11.45.2.13.09.23.21.31.36s.16.33.22.55l2.2,6.05h.03l2.28-6.04c.07-.22.14-.41.22-.56.08-.15.18-.27.28-.37.11-.09.23-.16.38-.2.15-.04.32-.06.51-.06h1.39c.14,0,.26.02.37.06.1.04.19.09.25.16.07.07.12.16.15.26s.05.22.05.35v9.05Z"/><path class="cls-3" d="m210.39,103.48c.06.19.1.34.12.45.02.11,0,.19-.06.25-.06.06-.16.09-.31.1s-.35.02-.6.02-.47,0-.62-.01c-.15,0-.26-.02-.34-.05-.08-.02-.13-.06-.17-.1-.03-.04-.06-.1-.08-.16l-.68-2.04h-3.82l-.64,1.99c-.02.07-.05.13-.08.18s-.09.09-.17.12c-.08.03-.18.05-.32.06-.14.01-.32.02-.54.02-.24,0-.43,0-.56-.02-.14-.02-.23-.05-.28-.11-.05-.06-.07-.15-.05-.26s.05-.26.12-.44l3.13-9.01c.03-.09.07-.16.11-.22s.11-.1.2-.13c.09-.03.22-.05.38-.06s.38-.01.64-.01c.31,0,.55,0,.74.01.18,0,.32.03.43.06.1.03.18.07.22.13.04.06.08.14.11.24l3.14,9Zm-4.66-7.45h0l-1.44,4.32h2.88l-1.44-4.32Z"/><path class="cls-3" d="m219.54,103.53c0,.12-.02.23-.06.32-.04.09-.1.17-.17.24-.07.06-.15.11-.25.14-.1.03-.2.04-.29.04h-.88c-.18,0-.34-.02-.48-.06-.13-.04-.26-.1-.37-.2s-.22-.23-.33-.39c-.1-.17-.22-.38-.35-.64l-2.53-4.75c-.15-.28-.3-.59-.45-.91-.15-.33-.29-.64-.41-.95h-.02c.02.38.04.75.05,1.13.01.37.02.76.02,1.16v5.31c0,.05-.01.1-.04.14-.03.04-.08.08-.15.11s-.17.05-.29.07c-.12.02-.27.02-.46.02s-.34,0-.46-.02c-.12-.02-.21-.04-.28-.07s-.11-.06-.14-.11c-.03-.04-.04-.09-.04-.14v-9.13c0-.25.07-.43.22-.55s.32-.18.53-.18h1.11c.2,0,.37.02.5.05s.26.09.37.17c.11.08.21.19.3.33.09.14.19.31.29.51l1.98,3.71c.11.23.23.45.34.66.11.22.22.43.33.65s.21.43.31.64.2.42.29.63h0c-.02-.37-.03-.75-.04-1.15,0-.4-.01-.78-.01-1.14v-4.76c0-.05.01-.1.05-.14.03-.04.08-.08.16-.11.07-.03.17-.05.29-.07.12-.01.27-.02.46-.02.18,0,.33,0,.45.02.12.01.21.04.28.07.06.03.11.07.14.11.03.04.04.09.04.14v9.13Z"/><path class="cls-3" d="m229.43,103.48c.06.19.1.34.12.45.02.11,0,.19-.06.25-.06.06-.16.09-.31.1s-.35.02-.6.02-.47,0-.62-.01c-.15,0-.26-.02-.34-.05-.08-.02-.13-.06-.17-.1-.03-.04-.06-.1-.08-.16l-.68-2.04h-3.82l-.64,1.99c-.02.07-.05.13-.08.18s-.09.09-.17.12c-.08.03-.18.05-.32.06-.14.01-.32.02-.54.02-.24,0-.43,0-.56-.02-.14-.02-.23-.05-.28-.11-.05-.06-.07-.15-.05-.26s.05-.26.12-.44l3.13-9.01c.03-.09.07-.16.11-.22s.11-.1.2-.13c.09-.03.22-.05.38-.06s.38-.01.64-.01c.31,0,.55,0,.74.01.18,0,.32.03.43.06.1.03.18.07.22.13.04.06.08.14.11.24l3.14,9Zm-4.66-7.45h0l-1.44,4.32h2.88l-1.44-4.32Z"/><path class="cls-3" d="m238.58,103.53c0,.12-.02.23-.06.32-.04.09-.1.17-.17.24-.07.06-.15.11-.25.14-.1.03-.2.04-.29.04h-.88c-.18,0-.34-.02-.48-.06-.13-.04-.26-.1-.37-.2s-.22-.23-.33-.39c-.1-.17-.22-.38-.35-.64l-2.53-4.75c-.15-.28-.3-.59-.45-.91-.15-.33-.29-.64-.41-.95h-.02c.02.38.04.75.05,1.13.01.37.02.76.02,1.16v5.31c0,.05-.01.1-.04.14-.03.04-.08.08-.15.11s-.17.05-.29.07c-.12.02-.27.02-.46.02s-.34,0-.46-.02c-.12-.02-.21-.04-.28-.07s-.11-.06-.14-.11c-.03-.04-.04-.09-.04-.14v-9.13c0-.25.07-.43.22-.55s.32-.18.53-.18h1.11c.2,0,.37.02.5.05s.26.09.37.17c.11.08.21.19.3.33.09.14.19.31.29.51l1.98,3.71c.11.23.23.45.34.66.11.22.22.43.33.65s.21.43.31.64.2.42.29.63h0c-.02-.37-.03-.75-.04-1.15,0-.4-.01-.78-.01-1.14v-4.76c0-.05.01-.1.05-.14.03-.04.08-.08.16-.11.07-.03.17-.05.29-.07.12-.01.27-.02.46-.02.18,0,.33,0,.45.02.12.01.21.04.28.07.06.03.11.07.14.11.03.04.04.09.04.14v9.13Z"/><path class="cls-3" d="m248.3,95.67c0,.15,0,.28-.02.39-.01.11-.03.2-.05.26s-.05.11-.09.14-.07.04-.12.04c-.07,0-.18-.05-.33-.14-.15-.09-.35-.2-.6-.31-.25-.11-.55-.21-.9-.31-.35-.09-.75-.14-1.21-.14-.49,0-.94.09-1.34.26s-.74.41-1.02.72c-.28.31-.5.69-.65,1.12-.15.44-.23.92-.23,1.45,0,.58.08,1.09.23,1.53.15.44.37.81.65,1.11.28.3.61.52,1,.68.39.15.82.23,1.29.23.23,0,.46-.03.68-.08.23-.05.43-.13.63-.24v-2.35h-1.92c-.09,0-.17-.06-.22-.18-.05-.12-.08-.32-.08-.6,0-.15,0-.27.02-.37.01-.1.03-.18.06-.24.03-.06.06-.1.09-.13.04-.03.08-.04.12-.04h3.43c.08,0,.16.01.22.04.06.03.12.07.17.13.05.06.09.13.11.21s.04.17.04.28v4.04c0,.16-.03.29-.08.41-.05.12-.17.21-.34.28s-.38.14-.63.21c-.25.07-.51.14-.78.19-.27.05-.54.09-.82.12s-.55.04-.83.04c-.81,0-1.54-.12-2.18-.35-.64-.23-1.18-.57-1.63-1.01-.44-.44-.78-.98-1.02-1.62-.24-.64-.35-1.36-.35-2.16s.13-1.58.38-2.24c.25-.66.61-1.22,1.07-1.69.46-.46,1.02-.82,1.67-1.06.65-.25,1.38-.37,2.18-.37.44,0,.84.03,1.2.09.36.06.68.13.95.22.27.09.49.18.67.28.18.1.3.19.37.26.07.07.12.18.15.31.03.13.05.33.05.59Z"/><path class="cls-3" d="m255.78,103.44c0,.15,0,.28-.02.38-.01.1-.03.18-.06.25-.03.06-.06.11-.1.14-.04.03-.08.04-.13.04h-5.1c-.17,0-.32-.05-.44-.15s-.18-.27-.18-.5v-8.85c0-.23.06-.4.18-.5s.26-.15.44-.15h5.07s.09.01.13.04c.04.03.07.07.09.14.03.07.05.15.06.25.01.1.02.23.02.39,0,.15,0,.27-.02.37-.01.1-.03.18-.06.25s-.06.11-.09.14c-.04.03-.08.04-.13.04h-3.63v2.48h3.07s.09.02.13.04c.04.03.07.07.1.13s.05.14.06.24c.01.1.02.23.02.37s0,.28-.02.38c-.01.1-.03.18-.06.24s-.06.1-.1.13c-.04.03-.08.04-.13.04h-3.07v2.86h3.66s.09.02.13.04c.04.03.07.07.1.14s.05.15.06.25c.01.1.02.23.02.38Z"/><path class="cls-3" d="m268.79,103.97c0,.05-.01.1-.04.14-.03.04-.08.08-.16.1s-.18.05-.3.06c-.12.02-.28.02-.48.02s-.34,0-.47-.02c-.13-.02-.23-.04-.3-.06-.07-.03-.13-.06-.16-.1-.03-.04-.05-.09-.05-.14v-8.27h-.02l-2.94,8.26c-.02.07-.06.12-.1.17-.05.05-.11.08-.19.11-.08.03-.18.04-.31.05-.13,0-.28.01-.46.01s-.33,0-.45-.02c-.13-.01-.23-.03-.31-.06-.08-.03-.15-.06-.19-.11-.05-.04-.08-.09-.09-.15l-2.84-8.26h-.02v8.27c0,.05-.01.1-.04.14-.03.04-.08.08-.16.1-.08.03-.18.05-.3.06-.12.02-.28.02-.47.02s-.34,0-.47-.02c-.13-.02-.23-.04-.3-.06s-.13-.06-.16-.1c-.03-.04-.04-.09-.04-.14v-9.05c0-.27.07-.47.21-.61.14-.14.33-.21.56-.21h1.35c.24,0,.45.02.62.06.17.04.32.11.45.2.13.09.23.21.31.36s.16.33.22.55l2.2,6.05h.03l2.28-6.04c.07-.22.14-.41.22-.56.08-.15.18-.27.28-.37.11-.09.23-.16.38-.2.15-.04.32-.06.51-.06h1.39c.14,0,.26.02.37.06.1.04.19.09.25.16.07.07.12.16.15.26s.05.22.05.35v9.05Z"/><path class="cls-3" d="m276.38,103.44c0,.15,0,.28-.02.38-.01.1-.03.18-.06.25-.03.06-.06.11-.1.14-.04.03-.08.04-.13.04h-5.1c-.17,0-.32-.05-.44-.15s-.18-.27-.18-.5v-8.85c0-.23.06-.4.18-.5s.26-.15.44-.15h5.07s.09.01.13.04c.04.03.07.07.09.14.03.07.05.15.06.25.01.1.02.23.02.39,0,.15,0,.27-.02.37-.01.1-.03.18-.06.25s-.06.11-.09.14c-.04.03-.08.04-.13.04h-3.63v2.48h3.07s.09.02.13.04c.04.03.07.07.1.13s.05.14.06.24c.01.1.02.23.02.37s0,.28-.02.38c-.01.1-.03.18-.06.24s-.06.1-.1.13c-.04.03-.08.04-.13.04h-3.07v2.86h3.66s.09.02.13.04c.04.03.07.07.1.14s.05.15.06.25c.01.1.02.23.02.38Z"/><path class="cls-3" d="m285.93,103.53c0,.12-.02.23-.06.32-.04.09-.1.17-.17.24-.07.06-.15.11-.25.14-.1.03-.2.04-.29.04h-.88c-.18,0-.34-.02-.48-.06-.13-.04-.26-.1-.37-.2s-.22-.23-.33-.39c-.1-.17-.22-.38-.35-.64l-2.53-4.75c-.15-.28-.3-.59-.45-.91-.15-.33-.29-.64-.41-.95h-.02c.02.38.04.75.05,1.13.01.37.02.76.02,1.16v5.31c0,.05-.01.1-.04.14-.03.04-.08.08-.15.11s-.17.05-.29.07c-.12.02-.27.02-.46.02s-.34,0-.46-.02c-.12-.02-.21-.04-.28-.07s-.11-.06-.14-.11c-.03-.04-.04-.09-.04-.14v-9.13c0-.25.07-.43.22-.55s.32-.18.53-.18h1.11c.2,0,.37.02.5.05s.26.09.37.17c.11.08.21.19.3.33.09.14.19.31.29.51l1.98,3.71c.11.23.23.45.34.66.11.22.22.43.33.65s.21.43.31.64.2.42.29.63h0c-.02-.37-.03-.75-.04-1.15,0-.4-.01-.78-.01-1.14v-4.76c0-.05.01-.1.05-.14.03-.04.08-.08.16-.11.07-.03.17-.05.29-.07.12-.01.27-.02.46-.02.18,0,.33,0,.45.02.12.01.21.04.28.07.06.03.11.07.14.11.03.04.04.09.04.14v9.13Z"/><path class="cls-3" d="m294.26,94.94c0,.15,0,.28-.02.39-.01.11-.03.19-.06.26-.03.07-.06.11-.1.15-.04.03-.08.05-.13.05h-2.54v8.19c0,.05-.02.1-.05.14s-.09.08-.17.1-.18.05-.32.06c-.13.02-.3.02-.5.02s-.36,0-.5-.02c-.13-.02-.24-.04-.32-.06-.08-.03-.13-.06-.17-.1s-.05-.09-.05-.14v-8.19h-2.54c-.05,0-.1-.02-.13-.05-.04-.03-.07-.08-.09-.15-.03-.07-.05-.15-.06-.26-.01-.11-.02-.24-.02-.39s0-.29.02-.4c.01-.11.03-.2.06-.26s.06-.11.09-.14c.04-.03.08-.04.13-.04h7.16s.09.01.13.04.07.08.1.14.05.15.06.26c.01.11.02.24.02.4Z"/><path class="cls-3" d="m303.83,101.21c0,.53-.1,1-.3,1.41-.2.4-.47.74-.81,1.01-.34.27-.74.47-1.19.61-.46.14-.94.2-1.46.2-.35,0-.68-.03-.98-.09-.3-.06-.57-.13-.8-.21s-.42-.17-.58-.26c-.15-.09-.27-.17-.33-.24s-.12-.17-.14-.29c-.03-.13-.04-.31-.04-.55,0-.16,0-.3.02-.41s.03-.2.05-.27c.02-.07.06-.12.09-.15.04-.03.09-.04.14-.04.07,0,.18.04.31.13s.3.18.51.29c.21.11.46.2.75.29.29.09.63.13,1.01.13.25,0,.48-.03.67-.09.2-.06.37-.15.51-.26.14-.11.25-.25.32-.41.07-.16.11-.34.11-.54,0-.23-.06-.43-.19-.59-.13-.17-.29-.31-.49-.44-.2-.13-.43-.25-.69-.36-.26-.11-.52-.23-.79-.36-.27-.13-.54-.27-.79-.43-.26-.16-.49-.35-.69-.57-.2-.22-.37-.49-.49-.79-.12-.3-.19-.67-.19-1.09,0-.49.09-.91.27-1.28.18-.37.42-.67.73-.92s.67-.43,1.08-.55c.42-.12.86-.18,1.32-.18.24,0,.48.02.72.06.24.04.47.09.67.15.21.06.4.13.56.21.16.08.27.14.32.2s.09.1.11.13c.02.04.03.09.05.15.01.06.02.14.03.23,0,.09,0,.21,0,.34,0,.15,0,.28-.01.38,0,.11-.02.19-.04.26s-.04.12-.08.15-.08.05-.14.05-.15-.04-.27-.11c-.13-.07-.28-.15-.46-.24-.18-.09-.4-.17-.64-.24-.24-.07-.5-.11-.79-.11-.23,0-.42.03-.59.08-.17.06-.31.13-.42.23s-.2.21-.25.35c-.05.14-.08.28-.08.43,0,.23.06.42.18.58.12.17.29.31.49.44.21.13.44.25.7.36.26.11.53.23.8.36.27.13.54.27.8.43.26.16.49.35.7.57s.37.48.49.78c.13.3.19.66.19,1.06Z"/><path class="cls-3" d="m308.56,100.4v3.57c0,.05-.02.1-.05.14s-.09.08-.17.1-.18.05-.32.06c-.13.02-.3.02-.5.02s-.37,0-.5-.02c-.13-.02-.24-.04-.32-.06-.08-.03-.14-.06-.17-.1s-.05-.09-.05-.14v-3.57l-2.78-5.53c-.1-.19-.16-.34-.19-.45-.03-.11-.01-.19.05-.24s.17-.09.33-.1.39-.02.68-.02c.24,0,.43,0,.58.02.14.01.26.03.34.06.08.03.14.07.18.11.04.05.08.11.11.18l1.13,2.5c.11.24.22.49.33.76.11.27.22.55.33.84h.02c.1-.28.2-.56.3-.82.11-.27.21-.52.31-.76l1.11-2.48c.03-.08.06-.15.1-.2.04-.05.1-.09.18-.12.08-.03.19-.05.32-.06.14-.01.32-.02.54-.02.3,0,.53,0,.69.02.16.01.28.05.34.1s.08.14.04.25-.09.26-.19.45l-2.78,5.53Z"/><path class="cls-3" d="m317.95,101.21c0,.53-.1,1-.3,1.41-.2.4-.47.74-.81,1.01-.34.27-.74.47-1.19.61-.46.14-.94.2-1.46.2-.35,0-.68-.03-.98-.09-.3-.06-.57-.13-.8-.21s-.42-.17-.58-.26c-.15-.09-.27-.17-.33-.24s-.12-.17-.14-.29c-.03-.13-.04-.31-.04-.55,0-.16,0-.3.02-.41s.03-.2.05-.27c.02-.07.06-.12.09-.15.04-.03.09-.04.14-.04.07,0,.18.04.31.13s.3.18.51.29c.21.11.46.2.75.29.29.09.63.13,1.01.13.25,0,.48-.03.67-.09.2-.06.37-.15.51-.26.14-.11.25-.25.32-.41.07-.16.11-.34.11-.54,0-.23-.06-.43-.19-.59-.13-.17-.29-.31-.49-.44-.2-.13-.43-.25-.69-.36-.26-.11-.52-.23-.79-.36-.27-.13-.54-.27-.79-.43-.26-.16-.49-.35-.69-.57-.2-.22-.37-.49-.49-.79-.12-.3-.19-.67-.19-1.09,0-.49.09-.91.27-1.28.18-.37.42-.67.73-.92s.67-.43,1.08-.55c.42-.12.86-.18,1.32-.18.24,0,.48.02.72.06.24.04.47.09.67.15.21.06.4.13.56.21.16.08.27.14.32.2s.09.1.11.13c.02.04.03.09.05.15.01.06.02.14.03.23,0,.09,0,.21,0,.34,0,.15,0,.28-.01.38,0,.11-.02.19-.04.26s-.04.12-.08.15-.08.05-.14.05-.15-.04-.27-.11c-.13-.07-.28-.15-.46-.24-.18-.09-.4-.17-.64-.24-.24-.07-.5-.11-.79-.11-.23,0-.42.03-.59.08-.17.06-.31.13-.42.23s-.2.21-.25.35c-.05.14-.08.28-.08.43,0,.23.06.42.18.58.12.17.29.31.49.44.21.13.44.25.7.36.26.11.53.23.8.36.27.13.54.27.8.43.26.16.49.35.7.57s.37.48.49.78c.13.3.19.66.19,1.06Z"/><path class="cls-3" d="m325.49,94.94c0,.15,0,.28-.02.39-.01.11-.03.19-.06.26-.03.07-.06.11-.1.15-.04.03-.08.05-.13.05h-2.54v8.19c0,.05-.02.1-.05.14s-.09.08-.17.1-.18.05-.32.06c-.13.02-.3.02-.5.02s-.36,0-.5-.02c-.13-.02-.24-.04-.32-.06-.08-.03-.13-.06-.17-.1s-.05-.09-.05-.14v-8.19h-2.54c-.05,0-.1-.02-.13-.05-.04-.03-.07-.08-.09-.15-.03-.07-.05-.15-.06-.26-.01-.11-.02-.24-.02-.39s0-.29.02-.4c.01-.11.03-.2.06-.26s.06-.11.09-.14c.04-.03.08-.04.13-.04h7.16s.09.01.13.04.07.08.1.14.05.15.06.26c.01.11.02.24.02.4Z"/><path class="cls-3" d="m332.07,103.44c0,.15,0,.28-.02.38-.01.1-.03.18-.06.25-.03.06-.06.11-.1.14-.04.03-.08.04-.13.04h-5.1c-.17,0-.32-.05-.44-.15s-.18-.27-.18-.5v-8.85c0-.23.06-.4.18-.5s.26-.15.44-.15h5.07s.09.01.13.04c.04.03.07.07.09.14.03.07.05.15.06.25.01.1.02.23.02.39,0,.15,0,.27-.02.37-.01.1-.03.18-.06.25s-.06.11-.09.14c-.04.03-.08.04-.13.04h-3.63v2.48h3.07s.09.02.13.04c.04.03.07.07.1.13s.05.14.06.24c.01.1.02.23.02.37s0,.28-.02.38c-.01.1-.03.18-.06.24s-.06.1-.1.13c-.04.03-.08.04-.13.04h-3.07v2.86h3.66s.09.02.13.04c.04.03.07.07.1.14s.05.15.06.25c.01.1.02.23.02.38Z"/><path class="cls-3" d="m345.08,103.97c0,.05-.01.1-.04.14-.03.04-.08.08-.16.1s-.18.05-.3.06c-.12.02-.28.02-.48.02s-.34,0-.47-.02c-.13-.02-.23-.04-.3-.06-.07-.03-.13-.06-.16-.1-.03-.04-.05-.09-.05-.14v-8.27h-.02l-2.94,8.26c-.02.07-.06.12-.1.17-.05.05-.11.08-.19.11-.08.03-.18.04-.31.05-.13,0-.28.01-.46.01s-.33,0-.45-.02c-.13-.01-.23-.03-.31-.06-.08-.03-.15-.06-.19-.11-.05-.04-.08-.09-.09-.15l-2.84-8.26h-.02v8.27c0,.05-.01.1-.04.14-.03.04-.08.08-.16.1-.08.03-.18.05-.3.06-.12.02-.28.02-.47.02s-.34,0-.47-.02c-.13-.02-.23-.04-.3-.06s-.13-.06-.16-.1c-.03-.04-.04-.09-.04-.14v-9.05c0-.27.07-.47.21-.61.14-.14.33-.21.56-.21h1.35c.24,0,.45.02.62.06.17.04.32.11.45.2.13.09.23.21.31.36s.16.33.22.55l2.2,6.05h.03l2.28-6.04c.07-.22.14-.41.22-.56.08-.15.18-.27.28-.37.11-.09.23-.16.38-.2.15-.04.32-.06.51-.06h1.39c.14,0,.26.02.37.06.1.04.19.09.25.16.07.07.12.16.15.26s.05.22.05.35v9.05Z"/></g></svg>