<svg xmlns="http://www.w3.org/2000/svg" width="18" height="18" viewBox="0 0 18 18">
  <g id="edit_2_" data-name="edit (2)" transform="translate(-0.5 -0.5)">
    <path id="Path_29285" data-name="Path 29285" d="M12.016,7.734l-1.082,3.607a.871.871,0,0,0,.834,1.121.86.86,0,0,0,.25-.037l3.607-1.081a.869.869,0,0,0,.366-.218l6.613-6.613a.871.871,0,0,0,0-1.232L20.079.755a.871.871,0,0,0-1.232,0L12.235,7.368A.872.872,0,0,0,12.016,7.734Zm1.606.71L19.463,2.6,20.757,3.9,14.916,9.739l-1.848.554Z" transform="translate(-4.36 0)" fill="#8a8a8a"/>
    <path id="Path_29286" data-name="Path 29286" d="M17.629,8.629a.871.871,0,0,0-.871.871v5.806a1.453,1.453,0,0,1-1.452,1.452H3.694a1.453,1.453,0,0,1-1.452-1.452V3.694A1.453,1.453,0,0,1,3.694,2.242H9.5A.871.871,0,1,0,9.5.5H3.694A3.2,3.2,0,0,0,.5,3.694V15.306A3.2,3.2,0,0,0,3.694,18.5H15.306A3.2,3.2,0,0,0,18.5,15.306V9.5A.871.871,0,0,0,17.629,8.629Z" transform="translate(0 0)" fill="#8a8a8a"/>
  </g>
</svg>
