<svg xmlns="http://www.w3.org/2000/svg" width="17.001" height="20.123" viewBox="0 0 17.001 20.123">
  <path id="location_1_" data-name="location (1)" d="M20.46,9.63A8.5,8.5,0,1,0,6,16.46l5.3,5.31a1,1,0,0,0,1.42,0L18,16.46A8.46,8.46,0,0,0,20.46,9.63ZM16.6,15.05,12,19.65l-4.6-4.6A6.49,6.49,0,0,1,5.53,9.83,6.57,6.57,0,0,1,8.42,5a6.47,6.47,0,0,1,7.16,0,6.57,6.57,0,0,1,2.89,4.81,6.49,6.49,0,0,1-1.87,5.24ZM12,6a4.5,4.5,0,1,0,4.5,4.5A4.5,4.5,0,0,0,12,6Zm0,7a2.5,2.5,0,1,1,2.5-2.5A2.5,2.5,0,0,1,12,13Z" transform="translate(-3.5 -1.943)"/>
</svg>
