<svg id="pen" xmlns="http://www.w3.org/2000/svg" width="15.591" height="15.575" viewBox="0 0 15.591 15.575">
  <path id="Path_29235" data-name="Path 29235" d="M19.557,3.218a.743.743,0,0,0-1.052,0l-.648.648a2.231,2.231,0,0,0-2.539.436L7.433,12.187l4.206,4.206,7.886-7.886a2.229,2.229,0,0,0,.436-2.538l.649-.649a.743.743,0,0,0,0-1.051L19.557,3.218ZM16.384,9.545l-4.746,4.746-2.1-2.1,4.746-4.746,2.1,2.1Zm1.352-1.352.736-.736a.743.743,0,0,0,0-1.052l-1.05-1.051a.743.743,0,0,0-1.052,0l-.736.736,2.1,2.1Z" transform="translate(-5.236 -3)" fill="#8a8a8a" fill-rule="evenodd"/>
  <path id="Path_29236" data-name="Path 29236" d="M3,28.54l1.578-5.782,4.2,4.206Z" transform="translate(-3 -12.965)" fill="#8a8a8a"/>
</svg>
