<svg xmlns="http://www.w3.org/2000/svg" xmlns:xlink="http://www.w3.org/1999/xlink" width="20" height="20" viewBox="0 0 20 20">
  <defs>
    <clipPath id="clip-change-password">
      <rect width="20" height="20"/>
    </clipPath>
  </defs>
  <g id="change-password" clip-path="url(#clip-change-password)">
    <rect width="20" height="20" fill="rgba(73,80,86,0)"/>
    <g id="Group_54960" data-name="Group 54960" transform="translate(-1043.995 -201.872)">
      <path id="Subtraction_14" data-name="Subtraction 14" d="M9.576,17.543H5.553c-2.4,0-3.714,0-4.633-.919S0,14.385,0,11.99,0,8.277.92,7.356A2.811,2.811,0,0,1,2.414,6.6V5.553a5.553,5.553,0,1,1,11.105,0V6.6a2.815,2.815,0,0,1,1.5.756c.836.839.906,2.06.917,3.827a4.8,4.8,0,0,0-1.452-.378c-.019-1.33-.1-2.032-.489-2.425-.476-.476-1.394-.495-3.609-.495H5.553c-2.216,0-3.134.019-3.609.495s-.5,1.394-.5,3.609.019,3.133.5,3.61,1.394.495,3.609.495H9.2a4.8,4.8,0,0,0,.377,1.447ZM5.553,6.438h4.829c.64,0,1.193,0,1.689.017v-.9a4.1,4.1,0,1,0-8.208,0v.9C4.359,6.438,4.912,6.438,5.553,6.438Zm2.414,7.886a2.33,2.33,0,1,1,2.25-1.708,4.8,4.8,0,0,0-.64,1.064A2.324,2.324,0,0,1,7.966,14.324Zm0-3.218a.886.886,0,1,0,.886.885A.886.886,0,0,0,7.966,11.105Z" transform="translate(1046.099 203.1)" fill="#534c49"/>
      <path id="edit-svgrepo-com" d="M9.645,5.355a1.09,1.09,0,0,1,1.541,0l.308.308a1.09,1.09,0,0,1,0,1.541L7.95,10.749H6.536a.436.436,0,0,1-.436-.436V8.9Zm.925.617.308.308a.218.218,0,0,1,0,.308l-.462.462L9.8,6.434l.462-.462A.218.218,0,0,1,10.57,5.971ZM9.8,7.667,7.589,9.877H6.972V9.261L9.183,7.05Z" transform="translate(1050.808 209.678)" fill="#534c49" fill-rule="evenodd"/>
    </g>
  </g>
</svg>
