<svg xmlns="http://www.w3.org/2000/svg" width="28.208" height="29.309" viewBox="0 0 28.208 29.309">
  <g id="copy" transform="translate(0 2.9)">
    <path id="Path_29344" data-name="Path 29344" d="M26.409,0H0V26.41H26.409Z" transform="translate(0 -0.001)" fill="none"/>
    <path id="Path_29345" data-name="Path 29345" d="M9.5,2h13.2a2.2,2.2,0,0,1,2.2,2.2V19.607h-2.2V4.2H9.5ZM6.2,6.4H18.3a2.2,2.2,0,0,1,2.2,2.2V24.008a2.2,2.2,0,0,1-2.2,2.2H6.2a2.2,2.2,0,0,1-2.2-2.2V8.6A2.2,2.2,0,0,1,6.2,6.4Zm0,17.607H18.3V8.6H6.2Z" transform="translate(-0.699 -0.9)" fill="#929292"/>
    <path id="Path_29346" data-name="Path 29346" d="M9.5,2h13.2a2.2,2.2,0,0,1,2.2,2.2V19.607h-2.2V4.2H9.5Z" transform="translate(3.301 -4.9)" fill="#929292"/>
  </g>
</svg>
