<svg xmlns="http://www.w3.org/2000/svg" width="18.012" height="16.392" viewBox="0 0 18.012 16.392">
  <path id="download-bracket-svgrepo-com" d="M6.095,10.274A.81.81,0,1,1,7.24,9.129L9.1,10.986V2.81a.81.81,0,0,1,1.619,0v8.176l1.856-1.856a.81.81,0,1,1,1.145,1.145l-3.239,3.238a.81.81,0,0,1-.263.175.8.8,0,0,1-.619,0,.81.81,0,0,1-.263-.175ZM18,10.1a.81.81,0,0,0-.81.81v5.667H2.619V10.906a.81.81,0,0,0-1.619,0v6.477a.81.81,0,0,0,.81.81H18a.81.81,0,0,0,.81-.81V10.906A.81.81,0,0,0,18,10.1Z" transform="translate(-0.9 -1.9)" fill="#534c49" stroke="#534c49" stroke-width="0.2"/>
</svg>
