<svg xmlns="http://www.w3.org/2000/svg" width="21.249" height="24.726" viewBox="0 0 21.249 24.726">
  <path id="document" d="M54.351,7.727H52.42a2.9,2.9,0,0,1-2.9-2.9V2.9a2.9,2.9,0,0,0-2.9-2.9H38.9A2.9,2.9,0,0,0,36,2.9V21.829a2.9,2.9,0,0,0,2.9,2.9H54.351a2.9,2.9,0,0,0,2.9-2.9v-11.2A2.9,2.9,0,0,0,54.351,7.727ZM51.937,20.863H41.312a1.449,1.449,0,1,1,0-2.9H51.937a1.449,1.449,0,1,1,0,2.9Zm0-5.8H41.312a1.449,1.449,0,1,1,0-2.9H51.937a1.449,1.449,0,1,1,0,2.9Z" transform="translate(-36)" fill="#1a3455"/>
</svg>
