<svg xmlns="http://www.w3.org/2000/svg" xmlns:xlink="http://www.w3.org/1999/xlink" width="20" height="20" viewBox="0 0 20 20">
  <defs>
    <clipPath id="clip-Gatepass-list">
      <rect width="20" height="20"/>
    </clipPath>
  </defs>
  <g id="Gatepass-list" clip-path="url(#clip-Gatepass-list)">
    <rect width="20" height="20" fill="rgba(73,80,86,0)"/>
    <path id="Path_29248" data-name="Path 29248" d="M18.5,3.624l.388-.132V0H3.776V3.492l.388.132a1.522,1.522,0,0,1,.99,1.466,1.651,1.651,0,0,1-.145.681H0V9.264L.387,9.4a1.522,1.522,0,0,1,.99,1.466,1.522,1.522,0,0,1-.99,1.466L0,12.46v3.492H15.116V12.46l-.388-.132a1.522,1.522,0,0,1-.99-1.466,1.651,1.651,0,0,1,.145-.681h5.008V6.689L18.5,6.556a1.522,1.522,0,0,1-.99-1.466,1.522,1.522,0,0,1,.99-1.466Zm-2.1,1.466a2.761,2.761,0,0,0,1.378,2.442V8.978H15.116V1.2h2.669V2.648A2.761,2.761,0,0,0,16.408,5.09Zm-2.4,8.214V14.75H11.18V6.974h2.829V8.42a2.853,2.853,0,0,0,0,4.884Zm-12.9,0a2.761,2.761,0,0,0,1.378-2.442A2.761,2.761,0,0,0,1.107,8.42V6.974h8.967V14.75H1.107ZM4.883,2.648V1.2h9.127V5.772H6.182A2.99,2.99,0,0,0,6.26,5.09,2.761,2.761,0,0,0,4.883,2.648Zm0,0" transform="translate(0.501 2.037)" fill="#fff" stroke="#fff" stroke-width="0.2"/>
    <path id="Path_29249" data-name="Path 29249" d="M110.444,80h3.247v1.208h-3.247Zm0,0-3.776,5.8h3.247v1.208h-3.247Zm0,0,0,2.578H111v1.208h-4.33Zm0,0" transform="translate(-102.232 -75.5)" fill="#fff" stroke="#fff" stroke-width="0.2"/>
  </g>
</svg>
