<svg xmlns="http://www.w3.org/2000/svg" xmlns:xlink="http://www.w3.org/1999/xlink" width="20" height="20" viewBox="0 0 20 20">
  <defs>
    <clipPath id="clip-Inventory-Register">
      <rect width="20" height="20"/>
    </clipPath>
  </defs>
  <g id="Inventory-Register" clip-path="url(#clip-Inventory-Register)">
    <rect width="20" height="20" fill="rgba(73,80,86,0)"/>
    <path id="Path_29405" data-name="Path 29405" d="M.629-10.562H7.881a.628.628,0,0,1,.629.629v.629a.628.628,0,0,1-.629.629H.629A.628.628,0,0,1,0-9.305v-.629A.628.628,0,0,1,.629-10.562Zm0,2.514H7.881V-3.02A1.258,1.258,0,0,1,6.624-1.763H1.886A1.258,1.258,0,0,1,.629-3.02Zm1.74,1.571a.315.315,0,0,0,.314.314H5.826a.315.315,0,0,0,.314-.314.315.315,0,0,0-.314-.314H2.683A.315.315,0,0,0,2.369-6.477Z" transform="translate(11.08 19.222)" fill="#fff"/>
    <path id="Path_29572" data-name="Path 29572" d="M1.582,13.2a1.61,1.61,0,0,1-1.369-.734A1.378,1.378,0,0,1,.214,11a1.611,1.611,0,0,1,1.369-.733A1.613,1.613,0,0,1,2.951,11a1.381,1.381,0,0,1,0,1.466A1.612,1.612,0,0,1,1.582,13.2Zm8.258-.489H6.323a.98.98,0,1,1,0-1.955H9.84v1.955ZM2.119,8.8h0a.839.839,0,0,1-.567-.214L.232,7.365a.693.693,0,0,1,0-1.035.825.825,0,0,1,.561-.214.807.807,0,0,1,.555.214L2.076,7,3.89,5.135A.832.832,0,0,1,5.006,5.08h0a.71.71,0,0,1,.261.512.7.7,0,0,1-.2.524L2.7,8.56a.808.808,0,0,1-.567.241Zm7.72-.978H8.431a1.019,1.019,0,0,1-1.054-.978,1.019,1.019,0,0,1,1.054-.978H9.84V7.823ZM2.119,3.913h0A.839.839,0,0,1,1.552,3.7L.232,2.477a.7.7,0,0,1,0-1.039A.81.81,0,0,1,.79,1.223a.811.811,0,0,1,.558.215l.728.675L3.89.244A.832.832,0,0,1,5.006.189l0,0A.708.708,0,0,1,5.272.7a.7.7,0,0,1-.2.524L2.7,3.672a.808.808,0,0,1-.567.241Zm13.686-.978H8.431a1.019,1.019,0,0,1-1.054-.978A1.019,1.019,0,0,1,8.431.98h7.375a1.019,1.019,0,0,1,1.054.978A1.019,1.019,0,0,1,15.806,2.935Z" transform="translate(0.411 2.542)" fill="#fff"/>
  </g>
</svg>
