<svg xmlns="http://www.w3.org/2000/svg" xmlns:xlink="http://www.w3.org/1999/xlink" width="20" height="20" viewBox="0 0 20 20">
  <defs>
    <clipPath id="clip-material-master">
      <rect width="20" height="20"/>
    </clipPath>
  </defs>
  <g id="material-master" clip-path="url(#clip-material-master)">
    <rect width="20" height="20" fill="rgba(73,80,86,0)"/>
    <path id="Path_29466" data-name="Path 29466" d="M10.66,1.488a2.423,2.423,0,0,1,1.174.3L18.32,5.4a1.555,1.555,0,0,1,.8,1.358v7.109a2.418,2.418,0,0,1-1.243,2.113l-6.043,3.357a2.417,2.417,0,0,1-2.348,0L3.443,15.976A2.418,2.418,0,0,1,2.2,13.863V6.754A1.555,1.555,0,0,1,3,5.4l6.487-3.6A2.423,2.423,0,0,1,10.66,1.488Zm0,16.768a1.039,1.039,0,0,0,.5-.13l6.043-3.357a1.036,1.036,0,0,0,.533-.906V6.754a.173.173,0,0,0-.089-.151L11.163,3a1.036,1.036,0,0,0-1.006,0L3.67,6.6a.173.173,0,0,0-.089.151v7.109a1.036,1.036,0,0,0,.533.906l6.043,3.357A1.038,1.038,0,0,0,10.66,18.256Z" transform="translate(-0.66 -0.563)" fill="#fff"/>
    <path id="Path_29467" data-name="Path 29467" d="M12.581,20.633H11.2V12h1.381Z" transform="translate(-1.891 -2)" fill="#fff"/>
    <path id="Path_29468" data-name="Path 29468" d="M7.391,9.4A.691.691,0,0,1,7.055,8.1l7.769-4.316A.691.691,0,0,1,15.5,4.994L7.726,9.311A.688.688,0,0,1,7.391,9.4Z" transform="translate(-1.275 -0.865)" fill="#fff"/>
    <path id="Path_29469" data-name="Path 29469" d="M8.48,14.353a.687.687,0,0,1-.336-.087l-2.59-1.443a.691.691,0,0,1,.672-1.207l2.59,1.443a.691.691,0,0,1-.337,1.294Z" transform="translate(-1.07 -1.935)" fill="#fff"/>
    <path id="Line_74" data-name="Line 74" d="M8.275,4.836-.358.52.26-.716,8.892,3.6Z" transform="translate(1.898 5.782)" fill="#fff"/>
    <path id="Line_74-2" data-name="Line 74" d="M.26,4.836,8.893.52,8.275-.716-.358,3.6Z" transform="translate(9.567 5.782)" fill="#fff"/>
  </g>
</svg>
