<svg xmlns="http://www.w3.org/2000/svg" width="21.364" height="26.112" viewBox="0 0 21.364 26.112">
  <path id="notification_1_" data-name="notification (1)" d="M13.682,27.112a2.374,2.374,0,0,0,2.374-2.374H11.308A2.374,2.374,0,0,0,13.682,27.112Zm-9.5-4.748H23.178a1.187,1.187,0,0,0,.839-2.026l-2.026-2.026v-6.63a8.316,8.316,0,0,0-7.122-8.214V2.187a1.187,1.187,0,0,0-2.374,0V3.469a8.316,8.316,0,0,0-7.122,8.214v6.63L3.348,20.339a1.187,1.187,0,0,0,.839,2.026ZM7.4,19.643a1.187,1.187,0,0,0,.348-.839V11.682a5.935,5.935,0,0,1,11.869,0V18.8a1.187,1.187,0,0,0,.348.839l.348.348H7.052Z" transform="translate(-3 -1)" fill="#fff"/>
</svg>
