<svg id="outward" xmlns="http://www.w3.org/2000/svg" width="27.82" height="21.025" viewBox="0 0 27.82 21.025">
  <path id="Subtraction_9" data-name="Subtraction 9" d="M7679.8,728.279a2.816,2.816,0,0,1-1.359-.353l-7-3.888a2.8,2.8,0,0,1-1.44-2.448v-8.234a1.8,1.8,0,0,1,.927-1.573l7.514-4.176a2.8,2.8,0,0,1,2.718,0l7.516,4.176a1.8,1.8,0,0,1,.925,1.573v.661a2.776,2.776,0,0,0-.3-.016,2.819,2.819,0,0,0-1.3.32v-.965a.2.2,0,0,0-.1-.176l-7.514-4.174a1.2,1.2,0,0,0-1.167,0l-7.514,4.174a.2.2,0,0,0-.1.176v8.234a1.2,1.2,0,0,0,.616,1.048l7,3.89a1.2,1.2,0,0,0,1.167,0l7-3.89a1.222,1.222,0,0,0,.248-.182,2.925,2.925,0,0,0,1.588.542,2.8,2.8,0,0,1-1.06,1.04l-7,3.888A2.8,2.8,0,0,1,7679.8,728.279Z" transform="translate(-7670 -707.255)" fill="#fff"/>
  <path id="Path_29467" data-name="Path 29467" d="M12.8,22H11.2V12h1.6Z" transform="translate(-2.2 -1.488)" fill="#fff"/>
  <path id="Path_29469" data-name="Path 29469" d="M9,14.8a.8.8,0,0,1-.389-.1l-3-1.672a.8.8,0,0,1,.779-1.4l3,1.672A.8.8,0,0,1,9,14.8Z" transform="translate(-2.2 -1.488)" fill="#fff"/>
  <path id="Line_74" data-name="Line 74" d="M9.642,5.716l-10-5L.358-.716l10,5Z" transform="translate(0.358 5.512)" fill="#fff"/>
  <path id="Line_74-2" data-name="Line 74" d="M.358,5.716l10-5L9.642-.716l-10,5Z" transform="translate(9.242 5.512)" fill="#fff"/>
  <path id="Path_29482" data-name="Path 29482" d="M7.508,8.386l3.125-3.125a1.252,1.252,0,0,0,0-1.77L7.508.366a1.251,1.251,0,0,0-1.77,1.77l.992.992H1.25a1.25,1.25,0,0,0,0,2.5H6.73l-.992.992a1.251,1.251,0,0,0,1.77,1.77Z" transform="translate(16.821 7.756)" fill="#fff"/>
</svg>
