<svg xmlns="http://www.w3.org/2000/svg" width="15.938" height="16.759" viewBox="0 0 15.938 16.759">
  <g id="print-svgrepo-com" transform="translate(0.85 0.85)">
    <path id="Path_29515" data-name="Path 29515" d="M15.644,12.363h.419c.79,0,1.184,0,1.43-.245s.245-.64.245-1.43V9.85c0-1.579,0-2.369-.491-2.859S15.967,6.5,14.388,6.5H6.85c-1.579,0-2.369,0-2.859.491S3.5,8.271,3.5,9.85v1.675c0,.395,0,.592.123.715s.32.123.715.123H5.594" transform="translate(-3.5 -3.15)" fill="none" stroke="#534c49" stroke-width="1.7"/>
    <path id="Path_29516" data-name="Path 29516" d="M6.5,18.132V11.175c0-.79,0-1.184.245-1.43s.64-.245,1.43-.245h5.863c.79,0,1.184,0,1.43.245s.245.64.245,1.43v6.957c0,.265,0,.4-.087.46s-.213.021-.464-.063l-1.816-.605a.285.285,0,0,0-.288.008l-1.8.718a.286.286,0,0,1-.311,0l-1.8-.718a.284.284,0,0,0-.288-.008l-1.816.605c-.252.084-.377.126-.464.063S6.5,18.4,6.5,18.132Z" transform="translate(-3.987 -3.637)" fill="none" stroke="#534c49" stroke-width="1.7"/>
    <path id="Path_29517" data-name="Path 29517" d="M9.5,13.5h3.35" transform="translate(-4.475 -4.287)" fill="none" stroke="#534c49" stroke-linecap="round" stroke-width="1.7"/>
    <path id="Path_29518" data-name="Path 29518" d="M9.5,16.5h4.188" transform="translate(-4.475 -4.775)" fill="none" stroke="#534c49" stroke-linecap="round" stroke-width="1.7"/>
    <path id="Path_29519" data-name="Path 29519" d="M15.713,5.85V5.515c0-1.421,0-2.132-.442-2.574S14.119,2.5,12.7,2.5H9.515c-1.421,0-2.132,0-2.574.442S6.5,4.094,6.5,5.515V5.85" transform="translate(-3.987 -2.5)" fill="none" stroke="#534c49" stroke-width="1.7"/>
  </g>
</svg>
