<svg id="Search-M" xmlns="http://www.w3.org/2000/svg" width="14.779" height="14.778" viewBox="0 0 14.779 14.778">
  <g id="search_1_" data-name="search (1)">
    <path id="Path_29057" data-name="Path 29057" d="M6.389,12.778a6.389,6.389,0,1,1,6.389-6.389A6.4,6.4,0,0,1,6.389,12.778Zm0-11.616a5.227,5.227,0,1,0,5.227,5.227A5.233,5.233,0,0,0,6.389,1.162Z" fill="#fff"/>
    <path id="Path_29058" data-name="Path 29058" d="M21.223,22.235a.67.67,0,0,1-.49-.217l-3.324-3.549a.776.776,0,0,1,0-1.047.663.663,0,0,1,.981,0l3.324,3.549a.776.776,0,0,1,.151.807A.694.694,0,0,1,21.223,22.235Z" transform="translate(-7.138 -7.457)" fill="#fff"/>
  </g>
</svg>
