<svg xmlns="http://www.w3.org/2000/svg" width="16" height="16" viewBox="0 0 16 16">
  <g id="time_1_" data-name="time (1)" transform="translate(-8 -8)">
    <path id="Path_29239" data-name="Path 29239" d="M16,24a8,8,0,1,1,8-8,8,8,0,0,1-8,8ZM16,9.333A6.667,6.667,0,1,0,22.667,16,6.667,6.667,0,0,0,16,9.333Z"/>
    <path id="Path_29240" data-name="Path 29240" d="M34,22H30.667A.667.667,0,0,1,30,21.333V16.667a.667.667,0,1,1,1.333,0v4H34A.667.667,0,1,1,34,22Z" transform="translate(-14.667 -5.333)"/>
  </g>
</svg>
