<svg xmlns="http://www.w3.org/2000/svg" xmlns:xlink="http://www.w3.org/1999/xlink" width="20" height="20" viewBox="0 0 20 20">
  <defs>
    <clipPath id="clip-user-registration">
      <rect width="20" height="20"/>
    </clipPath>
  </defs>
  <g id="user-registration" clip-path="url(#clip-user-registration)">
    <rect width="20" height="20" fill="rgba(73,80,86,0)"/>
    <g id="Group_54952" data-name="Group 54952" transform="translate(-510.225 -43.938)">
      <g id="Q3_icons" data-name="Q3 icons" transform="translate(511.148 44.429)">
        <g id="Group_54950" data-name="Group 54950" transform="translate(0 0)">
          <ellipse id="Ellipse_620" data-name="Ellipse 620" cx="1.044" cy="1.046" rx="1.044" ry="1.046" transform="translate(4.085 11.297)" fill="#fff"/>
          <path id="Path_29576" data-name="Path 29576" d="M26.353,29H20.908a.908.908,0,1,0,0,1.815h5.445a.908.908,0,1,0,0-1.815Z" transform="translate(-12.826 -17.64)" fill="#fff"/>
          <ellipse id="Ellipse_621" data-name="Ellipse 621" cx="1.044" cy="1.046" rx="1.044" ry="1.046" transform="translate(4.085 13.66)" fill="#fff"/>
          <path id="Path_29577" data-name="Path 29577" d="M26.353,35H20.908a.908.908,0,1,0,0,1.815h5.445a.908.908,0,1,0,0-1.815Z" transform="translate(-12.826 -21.133)" fill="#fff"/>
          <path id="Path_29578" data-name="Path 29578" d="M20.277,6.553A2.277,2.277,0,1,0,18,4.277a2.277,2.277,0,0,0,2.277,2.277Zm0-3.035a.759.759,0,1,1-.759.759A.759.759,0,0,1,20.277,3.518Z" transform="translate(-11.2 -2)" fill="#fff"/>
          <path id="Path_29579" data-name="Path 29579" d="M13,17.815V19.63a.908.908,0,0,0,.908.908h8.168a.908.908,0,0,0,.908-.908V17.815A8.168,8.168,0,0,0,17.991,16,8.168,8.168,0,0,0,13,17.815Zm1.839,1.134a6.676,6.676,0,0,1,3.153-1.267A6.525,6.525,0,0,1,21.1,18.949Z" transform="translate(-8.915 -10.539)" fill="#fff"/>
          <path id="Path_29580" data-name="Path 29580" d="M20.789,2H18.52a.886.886,0,0,0-.908.863.886.886,0,0,0,.908.863h1.948V19.482H5.681V3.725H7.629a.886.886,0,0,0,.908-.863A.886.886,0,0,0,7.629,2H5.36a1.353,1.353,0,0,0-.977.366A1.219,1.219,0,0,0,4,3.294v16.4a1.219,1.219,0,0,0,.385.929,1.353,1.353,0,0,0,.977.366H20.789a1.353,1.353,0,0,0,.977-.366,1.219,1.219,0,0,0,.385-.929V3.294a1.219,1.219,0,0,0-.385-.929A1.353,1.353,0,0,0,20.789,2Z" transform="translate(-3.998 -1.97)" fill="#fff"/>
        </g>
      </g>
    </g>
  </g>
</svg>
