<svg xmlns="http://www.w3.org/2000/svg" width="21.554" height="29.371" viewBox="0 0 21.554 29.371">
  <g id="Group_54766" data-name="Group 54766" transform="translate(-1537 -200.83)">
    <path id="eraser" d="M7.782,22.316a.886.886,0,0,0,.626.259h7.084a.886.886,0,0,0,.626-.259l8.488-8.488a2.656,2.656,0,0,0,0-3.756L19.141,4.606a2.659,2.659,0,0,0-3.756,0L4.607,15.384a2.659,2.659,0,0,0,0,3.756Zm10.366-4.535-6.717-6.717,2.29-2.29,6.717,6.717ZM16.637,5.859a.908.908,0,0,1,1.252,0l5.465,5.465a.887.887,0,0,1,0,1.252L21.69,14.239,14.973,7.522ZM5.859,16.636l4.32-4.32L16.9,19.033,15.125,20.8H8.775L5.859,17.888A.887.887,0,0,1,5.859,16.636Zm18.93,7.71H4.423a.443.443,0,0,0-.443.443v.885a.443.443,0,0,0,.443.443H24.789a.443.443,0,0,0,.443-.443v-.885A.443.443,0,0,0,24.789,24.346Z" transform="translate(1533.17 197)" fill="#929292"/>
    <path id="eraser-2" data-name="eraser" d="M24.809,27H4.443A.443.443,0,0,0,4,27.443v.885a.443.443,0,0,0,.443.443H24.809a.443.443,0,0,0,.443-.443v-.885A.443.443,0,0,0,24.809,27Z" transform="translate(1533.151 197.889)" fill="#929292"/>
    <path id="eraser-3" data-name="eraser" d="M24.809,27H4.443A.443.443,0,0,0,4,27.443v.885a.443.443,0,0,0,.443.443H24.809a.443.443,0,0,0,.443-.443v-.885A.443.443,0,0,0,24.809,27Z" transform="translate(1533.151 201.43)" fill="#929292"/>
  </g>
</svg>
