<svg xmlns="http://www.w3.org/2000/svg" width="20" height="18" viewBox="0 0 20 18">
  <g id="money" transform="translate(-2 -3)">
    <path id="Path_29301" data-name="Path 29301" d="M18,9H6a4,4,0,0,0-4,4v4a4,4,0,0,0,4,4H18a4,4,0,0,0,4-4V13A4,4,0,0,0,18,9Zm2,8a2,2,0,0,1-2,2H6a2,2,0,0,1-2-2V13a2,2,0,0,1,2-2H18a2,2,0,0,1,2,2ZM5,7A1,1,0,0,0,6,8H18a1,1,0,0,0,0-2H6A1,1,0,0,0,5,7ZM8,4A1,1,0,0,0,9,5h6a1,1,0,0,0,0-2H9A1,1,0,0,0,8,4Z"/>
    <path id="Path_29302" data-name="Path 29302" d="M12,12a3,3,0,1,0,3,3A3,3,0,0,0,12,12Zm0,4a1,1,0,1,1,1-1A1,1,0,0,1,12,16Z"/>
  </g>
</svg>
