<svg id="Inward" xmlns="http://www.w3.org/2000/svg" width="19.6" height="27.024" viewBox="0 0 19.6 27.024">
  <path id="Subtraction_10" data-name="Subtraction 10" d="M7679.8,728.279a2.818,2.818,0,0,1-1.36-.353l-7-3.889a2.8,2.8,0,0,1-1.44-2.447v-8.237a1.8,1.8,0,0,1,.925-1.573l3.236-1.8a4.33,4.33,0,0,0,1,1.275l-3.461,1.922a.2.2,0,0,0-.1.174v8.237a1.2,1.2,0,0,0,.616,1.048l7,3.889a1.2,1.2,0,0,0,.583.152,1.218,1.218,0,0,0,.583-.152l7-3.889a1.2,1.2,0,0,0,.618-1.048v-8.237a.2.2,0,0,0-.1-.174l-2.867-1.593a4.839,4.839,0,0,0,1.163-1.185l2.481,1.378a1.8,1.8,0,0,1,.926,1.573v8.237a2.8,2.8,0,0,1-1.439,2.447l-7,3.889A2.815,2.815,0,0,1,7679.8,728.279Z" transform="translate(-7670 -701.255)" fill="#fff"/>
  <path id="Path_29467" data-name="Path 29467" d="M12.8,22H11.2V12h1.6Z" transform="translate(-2.2 4.512)" fill="#fff"/>
  <path id="Path_29469" data-name="Path 29469" d="M9,14.8a.8.8,0,0,1-.389-.1l-3-1.672a.8.8,0,0,1,.779-1.4l3,1.672A.8.8,0,0,1,9,14.8Z" transform="translate(-2.2 4.512)" fill="#fff"/>
  <path id="Line_74" data-name="Line 74" d="M9.642,5.716l-10-5L.358-.716l10,5Z" transform="translate(0.358 11.512)" fill="#fff"/>
  <path id="Line_74-2" data-name="Line 74" d="M.358,5.716l10-5L9.642-.716l-10,5Z" transform="translate(9.242 11.512)" fill="#fff"/>
  <path id="Path_29483" data-name="Path 29483" d="M6.508,6.492,9.633,9.617a1.252,1.252,0,0,1,0,1.77L6.508,14.512a1.251,1.251,0,0,1-1.77-1.77l.992-.992H.25a1.25,1.25,0,0,1,0-2.5H5.73l-.992-.992a1.251,1.251,0,0,1,1.77-1.77Z" transform="translate(20.678 1) rotate(90)" fill="#fff"/>
</svg>
