<svg xmlns="http://www.w3.org/2000/svg" width="24" height="18" viewBox="0 0 24 18">
  <g id="_32._Veiw" data-name="32. Veiw" transform="translate(0 -3)">
    <path id="Path_16271" data-name="Path 16271" d="M23.909,11.582C21.943,7.311,17.5,3,12,3S2.057,7.311.091,11.582a1.008,1.008,0,0,0,0,.836C2.057,16.689,6.5,21,12,21s9.943-4.311,11.909-8.582A1.008,1.008,0,0,0,23.909,11.582ZM12,19c-4.411,0-8.146-3.552-9.89-7C3.854,8.552,7.589,5,12,5s8.146,3.552,9.89,7c-1.744,3.448-5.479,7-9.89,7Z" fill="#8a8a8a"/>
    <path id="Path_16272" data-name="Path 16272" d="M12,7a5,5,0,1,0,5,5,5,5,0,0,0-5-5Zm0,8a3,3,0,1,1,3-3A3,3,0,0,1,12,15Z" fill="#8a8a8a"/>
  </g>
</svg>
