<svg xmlns="http://www.w3.org/2000/svg" xmlns:xlink="http://www.w3.org/1999/xlink" width="188" height="63" viewBox="0 0 188 63">
  <defs>
    <clipPath id="clip-path">
      <rect id="Rectangle_18247" data-name="Rectangle 18247" width="188" height="63" transform="translate(0.266 -0.267)" fill="none"/>
    </clipPath>
  </defs>
  <g id="harbinger-logo" transform="translate(-0.529 0.286)">
    <g id="Group_54939" data-name="Group 54939" transform="translate(0.262 -0.019)" clip-path="url(#clip-path)">
      <path id="Path_29545" data-name="Path 29545" d="M20.7,19.628C16.95,24.27,10.85,26.421,5,28.355a3.674,3.674,0,1,1-2.2-6.994l.686-.226c3.524-1.161,7.431-2.448,9.889-5.027,3.17-3.328,2.37-7.647,1.47-11.571C13.8-.025,21.764-1.959,22.82,2.61c1.332,5.8,1.984,11.926-2.122,17.019m5.859,9.926c-8.472,3.814-24.636,11.926-16.451,22.4C13.1,55.772,6.1,59.394,3.141,55.6c-4.483-5.73-3.936-13.286.17-19.064C7.821,30.2,15.2,26.577,22.487,23.3c4.635-2.084,8.714,4.168,4.07,6.253" transform="translate(1.279 1.89)" fill="#e63946" fill-rule="evenodd"/>
      <path id="Path_29546" data-name="Path 29546" d="M251.564,44.655V35.677h8.452v8.979H264.8v-22.3h-4.787v8.8h-8.452v-8.8h-4.788v22.3Z" transform="translate(-201.379 -16.471)" fill="#1d3557"/>
      <path id="Path_29547" data-name="Path 29547" d="M371.485,76.049c2.216,0,4.167-.994,4.64-2.38l.3,1.989h4.019v-8.8c0-4.309-2.423-6.749-6.709-6.749-4.226,0-6.974,2.23-6.974,5.634h3.783c0-1.356,1.034-2.109,2.955-2.109,1.625,0,2.512.783,2.512,2.26v.241l-4.138.331c-3.546.271-5.467,1.989-5.467,4.761,0,2.953,1.951,4.821,5.083,4.821m1.6-3.435c-1.389,0-2.039-.512-2.039-1.6,0-.964.709-1.416,2.689-1.6l2.305-.211v.813c0,1.717-1.211,2.591-2.955,2.591" transform="translate(-299.617 -47.473)" fill="#1d3557"/>
      <path id="Path_29548" data-name="Path 29548" d="M473.344,61.838a7.409,7.409,0,0,0-1.744-.211,3.96,3.96,0,0,0-3.9,2.471l-.236-2.23h-4.285V76.9h4.551V70.365c0-2.983,1.566-4.158,4.167-4.158h1.448Z" transform="translate(-379.092 -48.719)" fill="#1d3557"/>
      <path id="Path_29549" data-name="Path 29549" d="M537.2,42.718l.236-1.928a5.275,5.275,0,0,0,4.64,2.32c4.2,0,7.122-3.1,7.122-7.774,0-4.911-2.63-8.2-6.768-8.2a5.97,5.97,0,0,0-4.965,2.26V20h-4.551V42.718Zm.3-7.623a3.5,3.5,0,0,1,3.605-3.766,3.436,3.436,0,0,1,3.517,3.766,3.436,3.436,0,0,1-3.517,3.766A3.5,3.5,0,0,1,537.5,35.1" transform="translate(-436.361 -14.534)" fill="#1d3557"/>
      <path id="Path_29550" data-name="Path 29550" d="M639.267,25.442a2.605,2.605,0,0,0,2.571-2.651,2.586,2.586,0,1,0-5.172,0,2.611,2.611,0,0,0,2.6,2.651m-2.246,17.415h4.551V27.792h-4.551Z" transform="translate(-521.564 -14.673)" fill="#1d3557"/>
      <path id="Path_29551" data-name="Path 29551" d="M687.755,75.657V67.4a2.822,2.822,0,0,1,2.955-3.073c1.566,0,2.6,1.235,2.6,3.133v8.2h4.551v-9.31c0-3.947-2.039-6.237-5.556-6.237a5.435,5.435,0,0,0-4.521,2.049l-.3-1.567H683.2V75.657Z" transform="translate(-559.782 -47.473)" fill="#1d3557"/>
      <path id="Path_29552" data-name="Path 29552" d="M779.046,67.716c0,4.519,2.867,7.623,7,7.623a5.75,5.75,0,0,0,4.462-1.778v1.958a3.275,3.275,0,0,1-3.576,3.465c-2.009,0-3.25-.994-3.339-2.682h-4.609c.414,4.278,3.458,6.9,7.979,6.9,5.054,0,8.1-3.254,8.1-8.647v-14.1h-4.285l-.236,1.506a5.075,5.075,0,0,0-4.4-2.019c-4.167,0-7.092,3.194-7.092,7.774m4.581-.12a3.447,3.447,0,1,1,6.885,0,3.389,3.389,0,0,1-3.458,3.706,3.431,3.431,0,0,1-3.427-3.706" transform="translate(-638.441 -47.335)" fill="#1d3557"/>
      <path id="Path_29553" data-name="Path 29553" d="M891.245,76.049c4.048,0,6.974-2.139,7.505-5.484h-4.167c-.323,1.085-1.536,1.717-3.25,1.717a3,3,0,0,1-3.368-2.923l10.727-.06V68.125c0-4.911-2.9-8.015-7.536-8.015-4.462,0-7.566,3.284-7.566,7.984,0,4.64,3.191,7.954,7.655,7.954m-.061-12.172c1.832,0,2.986,1.024,2.986,2.621h-6.147a2.861,2.861,0,0,1,3.161-2.621" transform="translate(-724.343 -47.473)" fill="#1d3557"/>
      <path id="Path_29554" data-name="Path 29554" d="M993.305,61.838a7.409,7.409,0,0,0-1.743-.211,3.959,3.959,0,0,0-3.9,2.471l-.238-2.23H983.14V76.9h4.55V70.365c0-2.983,1.566-4.158,4.167-4.158h1.448Z" transform="translate(-806.095 -48.719)" fill="#1d3557"/>
      <path id="Path_29555" data-name="Path 29555" d="M251.053,177.4c2.276,0,4.285,1.024,4.847,3.374h5.024c-.5-4.821-4.522-7.954-9.752-7.954-6.767,0-11.171,4.851-11.171,11.57,0,6.84,4.285,11.419,10.4,11.419a8.171,8.171,0,0,0,6.147-2.35l.266,2.019h4.108V182.67H250.639v4.278h5.792c-.207,2.32-1.8,4.309-5.408,4.309-3.487,0-5.97-2.23-5.97-6.719,0-4.309,2.039-7.141,6-7.141" transform="translate(-195.814 -140.03)" fill="#1d3557"/>
      <path id="Path_29556" data-name="Path 29556" d="M386.173,214.318a7.408,7.408,0,0,0-1.744-.211,3.96,3.96,0,0,0-3.9,2.471l-.236-2.23h-4.285v15.035h4.551v-6.538c0-2.983,1.566-4.158,4.167-4.158h1.448Z" transform="translate(-307.505 -173.939)" fill="#1d3557"/>
      <path id="Path_29557" data-name="Path 29557" d="M438.859,220.713c0,4.761,3.428,7.924,8.157,7.924,4.7,0,8.127-3.164,8.127-7.924s-3.428-7.954-8.127-7.954c-4.729,0-8.157,3.194-8.157,7.954m4.581-.03a3.568,3.568,0,1,1,3.576,3.8,3.481,3.481,0,0,1-3.576-3.8" transform="translate(-359.121 -172.831)" fill="#1d3557"/>
      <path id="Path_29558" data-name="Path 29558" d="M551.759,215.287v7.834c0,2.471-.8,3.5-2.748,3.5-1.862,0-2.689-1.085-2.689-3.555v-7.774H541.77v9.461c0,3.706,2.069,6,5.438,6a5.846,5.846,0,0,0,4.522-2.079l.3,1.687h4.285V215.287Z" transform="translate(-443.633 -174.908)" fill="#1d3557"/>
      <path id="Path_29559" data-name="Path 29559" d="M642.2,235.369h4.551v-8.738a6.136,6.136,0,0,0,4.788,1.928c4.4,0,6.945-3.435,6.945-8.2,0-4.851-2.867-7.774-6.975-7.774a5.548,5.548,0,0,0-4.787,2.32l-.236-1.838H642.2Zm4.581-14.764a3.5,3.5,0,0,1,3.606-3.766,3.775,3.775,0,0,1,0,7.533,3.5,3.5,0,0,1-3.606-3.766" transform="translate(-526.109 -172.694)" fill="#1d3557"/>
    </g>
  </g>
</svg>
