<svg xmlns="http://www.w3.org/2000/svg" width="21.07" height="18.963" viewBox="0 0 21.07 18.963">
  <g id="add-file" transform="translate(-2 -3)">
    <path id="Path_29280" data-name="Path 29280" d="M22.016,12a1.053,1.053,0,0,0-1.053,1.053v6.321H4.107V13.053a1.053,1.053,0,0,0-2.107,0v7.374a1.053,1.053,0,0,0,1.053,1.053H22.016a1.053,1.053,0,0,0,1.053-1.053V13.053A1.053,1.053,0,0,0,22.016,12Z" transform="translate(0 0.481)" fill="#fff"/>
    <path id="Path_29281" data-name="Path 29281" d="M12.321,3a1.053,1.053,0,0,0-1.053,1.053V8.267H7.053a1.053,1.053,0,1,0,0,2.107h4.214v4.214a1.053,1.053,0,0,0,2.107,0V10.374h4.214a1.053,1.053,0,0,0,0-2.107H13.374V4.053A1.053,1.053,0,0,0,12.321,3Z" transform="translate(0.214)" fill="#fff"/>
  </g>
</svg>
