<svg xmlns="http://www.w3.org/2000/svg" width="19.91" height="21.973" viewBox="0 0 19.91 21.973">
  <g id="layer" transform="translate(-1.955 -0.5)">
    <path id="Path_29292" data-name="Path 29292" d="M2.5,7.453l8.892,4.962a1.063,1.063,0,0,0,1.037,0L21.32,7.453a1.063,1.063,0,0,0,0-1.856L12.428.635a1.06,1.06,0,0,0-1.036,0L2.5,5.6a1.063,1.063,0,0,0,0,1.856Zm9.41-4.672,6.71,3.744-6.71,3.745L5.2,6.525Z" transform="translate(0)"/>
    <path id="Path_29293" data-name="Path 29293" d="M20.284,14.635,11.91,19.307,3.536,14.635A1.063,1.063,0,0,0,2.5,16.491l8.892,4.962a1.061,1.061,0,0,0,1.036,0l8.892-4.962a1.063,1.063,0,0,0-1.036-1.856Z" transform="translate(0 -4.077)"/>
    <path id="Path_29294" data-name="Path 29294" d="M20.284,21.635,11.91,26.307,3.536,21.635A1.063,1.063,0,1,0,2.5,23.491l8.892,4.962a1.061,1.061,0,0,0,1.036,0l8.892-4.962a1.063,1.063,0,0,0-1.036-1.856Z" transform="translate(0 -6.115)"/>
  </g>
</svg>
