<svg xmlns="http://www.w3.org/2000/svg" width="29.814" height="20.492" viewBox="0 0 29.814 20.492">
  <path id="laptop" d="M5.708,2.5A3.847,3.847,0,0,0,1.865,6.343V21.1H.005L0,22.96l29.806.032.007-1.863-1.867,0V6.343A3.847,3.847,0,0,0,24.1,2.5Zm0,1.863H24.1a1.984,1.984,0,0,1,1.982,1.98V21.125l-3.2,0A9.322,9.322,0,0,0,15.1,16.613a4.724,4.724,0,1,0-.335-.007A9.337,9.337,0,0,0,6.92,21.1l-3.193,0V6.343A1.984,1.984,0,0,1,5.708,4.363ZM14.951,9.21a2.776,2.776,0,1,1-2.776,2.776A2.783,2.783,0,0,1,14.951,9.21ZM14.9,18.461a7.475,7.475,0,0,1,5.7,2.656L9.21,21.1a7.47,7.47,0,0,1,5.684-2.642Z" transform="translate(0.002 -2.5)" fill="#231f20"/>
</svg>
