<svg xmlns="http://www.w3.org/2000/svg" width="23.521" height="18.284" viewBox="0 0 23.521 18.284">
  <g id="tickets" transform="translate(0.001)">
    <path id="Path_29248" data-name="Path 29248" d="M23.037,4.154,23.52,4V0H4.7V4l.483.152A1.765,1.765,0,0,1,6.235,6.615H0v4l.483.151a1.754,1.754,0,0,1,1.232,1.68A1.753,1.753,0,0,1,.482,14.13L0,14.281v4h18.82v-4l-.483-.152a1.765,1.765,0,0,1-1.051-2.461H23.52v-4l-.483-.152a1.762,1.762,0,0,1,0-3.361Zm-2.611,1.68a3.125,3.125,0,0,0,1.715,2.8V10.29H18.819V1.378h3.323V3.035A3.125,3.125,0,0,0,20.427,5.834Zm-2.986,9.414v1.657H13.919V7.993h3.522V9.65a3.142,3.142,0,0,0,0,5.6Zm-16.063,0a3.125,3.125,0,0,0,1.715-2.8,3.125,3.125,0,0,0-1.715-2.8V7.993H12.541v8.912H1.378Zm4.7-12.213V1.378H17.441V6.615H7.7a3.168,3.168,0,0,0,.1-.781,3.125,3.125,0,0,0-1.715-2.8Zm0,0" fill="#fff"/>
    <path id="Path_29249" data-name="Path 29249" d="M111.369,80h4.043v1.378h-4.043Zm0,0-4.7,6.615h4.043v1.378h-4.043Zm0,0,0,2.94h5.39v1.378h-5.39Zm0,0" transform="translate(-101.768 -76.325)" fill="#fff"/>
  </g>
</svg>
